<svg width="1087" height="392" viewBox="0 0 1087 392" fill="none" xmlns="http://www.w3.org/2000/svg">
<path d="M0 151C0 67.605 67.605 0 151 0H1078C1082.97 0 1087 4.02944 1087 9V252C1087 329.32 1024.32 392 947 392H9.00001C4.02945 392 0 387.971 0 383V151Z" fill="white"/>
<mask id="path-2-outside-1_411_2" maskUnits="userSpaceOnUse" x="60" y="90" width="966" height="212" fill="black">
<rect fill="white" x="60" y="90" width="966" height="212"/>
<path d="M100.4 248.2C94.6667 248.2 89.5333 247.467 85 246C80.4667 244.533 76.4667 242.333 73 239.4L83.8 217C85.1333 218.2 87.7333 219.667 91.6 221.4C95.6 223 100.267 223.8 105.6 223.8C110.667 223.8 114.933 222.8 118.4 220.8C122 218.8 125 215.867 127.4 212C129.8 208 131.867 203.067 133.6 197.2C135.333 191.2 137.067 184.2 138.8 176.2L154.2 104.2H181.8L166.4 176.2C164.133 187 161.467 196.8 158.4 205.6C155.333 214.4 151.467 222 146.8 228.4C142.133 234.8 136 239.733 128.4 243.2C120.933 246.533 111.6 248.2 100.4 248.2Z"/>
<path d="M252.736 248C242.603 248 234.269 246 227.736 242C221.336 238 216.603 232.667 213.536 226C210.469 219.2 208.936 211.733 208.936 203.6C208.936 195.067 210.469 186.933 213.536 179.2C216.736 171.467 221.203 164.6 226.936 158.6C232.669 152.6 239.403 147.933 247.136 144.6C255.003 141.133 263.603 139.4 272.936 139.4C283.069 139.4 291.336 141.4 297.736 145.4C304.269 149.4 309.069 154.733 312.136 161.4C315.203 168.067 316.736 175.533 316.736 183.8C316.736 192.333 315.136 200.467 311.936 208.2C308.869 215.933 304.469 222.8 298.736 228.8C293.003 234.8 286.203 239.533 278.336 243C270.603 246.333 262.069 248 252.736 248ZM256.736 225.2C260.869 225.2 264.869 224.267 268.736 222.4C272.603 220.533 276.003 217.867 278.936 214.4C282.003 210.933 284.403 206.867 286.136 202.2C288.003 197.533 288.936 192.467 288.936 187C288.936 182.067 288.136 177.733 286.536 174C285.069 170.267 282.803 167.4 279.736 165.4C276.803 163.267 273.203 162.2 268.936 162.2C264.803 162.2 260.803 163.133 256.936 165C253.203 166.867 249.803 169.533 246.736 173C243.669 176.467 241.203 180.6 239.336 185.4C237.603 190.067 236.736 195.133 236.736 200.6C236.736 205.4 237.469 209.667 238.936 213.4C240.536 217.133 242.803 220.067 245.736 222.2C248.803 224.2 252.469 225.2 256.736 225.2Z"/>
<path d="M409.523 248C401.79 248 395.39 246.2 390.323 242.6C385.257 238.867 381.657 233.933 379.523 227.8L375.723 246H352.323L383.323 100H410.123L397.323 159.6C401.99 153.467 407.59 148.6 414.123 145C420.79 141.267 427.723 139.4 434.923 139.4C442.39 139.4 448.657 141.333 453.723 145.2C458.79 148.933 462.59 154 465.123 160.4C467.79 166.8 469.123 173.933 469.123 181.8C469.123 190.867 467.457 199.4 464.123 207.4C460.79 215.267 456.323 222.267 450.723 228.4C445.123 234.533 438.723 239.333 431.523 242.8C424.457 246.267 417.123 248 409.523 248ZM407.523 225.2C411.79 225.2 415.923 224.2 419.923 222.2C423.923 220.067 427.457 217.267 430.523 213.8C433.723 210.2 436.257 206.133 438.123 201.6C439.99 196.933 440.923 192.067 440.923 187C440.923 182.467 440.123 178.333 438.523 174.6C437.057 170.867 434.923 167.867 432.123 165.6C429.323 163.333 425.857 162.2 421.723 162.2C418.123 162.2 414.523 163.133 410.923 165C407.323 166.733 403.923 169.133 400.723 172.2C397.657 175.267 394.923 178.733 392.523 182.6L387.123 207.6C387.657 211.067 388.857 214.133 390.723 216.8C392.59 219.467 394.923 221.533 397.723 223C400.657 224.467 403.923 225.2 407.523 225.2Z"/>
<path d="M545.784 248C538.051 248 531.384 246.133 525.784 242.4C520.318 238.533 516.051 233.4 512.984 227C510.051 220.467 508.584 213.133 508.584 205C508.584 196.333 510.118 188.067 513.184 180.2C516.251 172.333 520.451 165.333 525.784 159.2C531.251 153.067 537.384 148.267 544.184 144.8C551.118 141.2 558.384 139.4 565.984 139.4C573.184 139.4 579.318 141.333 584.384 145.2C589.451 148.933 592.918 153.733 594.784 159.6L598.784 141.6H625.584L609.984 215.2C609.851 215.867 609.718 216.533 609.584 217.2C609.451 217.733 609.384 218.267 609.384 218.8C609.384 221.6 610.984 223.067 614.184 223.2L609.384 246C606.984 246.4 604.851 246.733 602.984 247C601.251 247.267 599.718 247.4 598.384 247.4C593.584 247.4 589.851 246.4 587.184 244.4C584.518 242.4 583.184 239.4 583.184 235.4C583.184 234.867 583.251 234.267 583.384 233.6C583.518 232.8 583.651 231.933 583.784 231C583.918 229.933 584.118 228.867 584.384 227.8C579.318 234.333 573.318 239.333 566.384 242.8C559.451 246.267 552.584 248 545.784 248ZM557.784 225.2C560.051 225.2 562.451 224.8 564.984 224C567.518 223.067 569.984 221.867 572.384 220.4C574.918 218.8 577.251 216.933 579.384 214.8C581.518 212.533 583.318 210.133 584.784 207.6L589.984 182.6C589.584 178.733 588.384 175.267 586.384 172.2C584.384 169.133 581.918 166.733 578.984 165C576.051 163.133 572.918 162.2 569.584 162.2C565.318 162.2 561.184 163.333 557.184 165.6C553.318 167.733 549.851 170.667 546.784 174.4C543.718 178 541.251 182.133 539.384 186.8C537.651 191.333 536.784 196 536.784 200.8C536.784 205.333 537.651 209.467 539.384 213.2C541.118 216.933 543.518 219.867 546.584 222C549.784 224.133 553.518 225.2 557.784 225.2Z"/>
<path d="M651.198 271.2C656.532 270.8 660.865 270.133 664.198 269.2C667.665 268.267 670.665 266.733 673.198 264.6C675.732 262.6 678.332 259.733 680.998 256L686.798 248.2L669.398 141.2H696.798L705.798 222.8L712.598 211.6C716.732 204.8 720.332 198.467 723.398 192.6C726.598 186.6 729.332 180.867 731.598 175.4C733.998 169.8 736.065 164.2 737.798 158.6C739.532 153 741.132 147.2 742.598 141.2H768.599C766.865 147.6 764.932 153.667 762.798 159.4C760.665 165 758.132 170.867 755.198 177C752.265 183.133 748.532 190.067 743.998 197.8C739.598 205.533 734.065 214.733 727.398 225.4L711.398 251.2C706.732 258.667 702.198 264.933 697.798 270C693.532 275.2 689.132 279.4 684.598 282.6C680.198 285.8 675.532 288.067 670.598 289.4C665.665 290.867 660.265 291.667 654.398 291.8L651.198 271.2Z"/>
<path d="M838.342 248C829.542 248 821.875 246.133 815.342 242.4C808.942 238.533 804.009 233.267 800.542 226.6C797.209 219.8 795.542 212.133 795.542 203.6C795.542 194.933 797.209 186.733 800.542 179C803.876 171.267 808.542 164.467 814.542 158.6C820.542 152.6 827.542 147.933 835.542 144.6C843.542 141.133 852.209 139.4 861.542 139.4C869.142 139.4 875.742 140.533 881.342 142.8C886.942 145.067 891.275 148.4 894.342 152.8C897.409 157.067 898.942 162.333 898.942 168.6C898.942 179.667 893.876 188.067 883.742 193.8C873.742 199.533 858.676 202.4 838.542 202.4C834.542 202.4 830.209 202.333 825.542 202.2C820.876 201.933 815.809 201.533 810.342 201L813.742 184.2C818.542 184.6 822.942 184.933 826.942 185.2C830.942 185.333 834.876 185.4 838.742 185.4C847.409 185.4 854.209 184.8 859.142 183.6C864.209 182.4 867.876 180.667 870.142 178.4C872.409 176.133 873.542 173.467 873.542 170.4C873.542 167.733 872.876 165.6 871.542 164C870.209 162.267 868.342 161 865.942 160.2C863.675 159.267 860.942 158.8 857.742 158.8C852.542 158.8 847.742 160.067 843.342 162.6C839.075 165 835.342 168.333 832.142 172.6C828.942 176.867 826.476 181.733 824.742 187.2C823.009 192.667 822.142 198.467 822.142 204.6C822.142 209.133 822.875 213.267 824.342 217C825.942 220.6 828.275 223.4 831.342 225.4C834.409 227.4 838.342 228.4 843.142 228.4C848.476 228.4 853.476 227.133 858.142 224.6C862.942 222.067 866.742 218.533 869.542 214L890.742 220.6C887.276 225.933 882.742 230.667 877.142 234.8C871.542 238.933 865.409 242.2 858.742 244.6C852.076 246.867 845.275 248 838.342 248Z"/>
<path d="M953.898 141.2H978.498L973.698 163.6C978.765 156.4 984.432 150.733 990.698 146.6C997.098 142.333 1003.37 140.2 1009.5 140.2C1010.83 140.2 1011.83 140.267 1012.5 140.4C1013.3 140.4 1013.9 140.467 1014.3 140.6L1009.3 164.4C1001.7 164.4 994.498 166 987.698 169.2C981.032 172.267 975.765 176.733 971.898 182.6L958.498 246H931.698L953.898 141.2Z"/>
</mask>
<path d="M100.4 248.2C94.6667 248.2 89.5333 247.467 85 246C80.4667 244.533 76.4667 242.333 73 239.4L83.8 217C85.1333 218.2 87.7333 219.667 91.6 221.4C95.6 223 100.267 223.8 105.6 223.8C110.667 223.8 114.933 222.8 118.4 220.8C122 218.8 125 215.867 127.4 212C129.8 208 131.867 203.067 133.6 197.2C135.333 191.2 137.067 184.2 138.8 176.2L154.2 104.2H181.8L166.4 176.2C164.133 187 161.467 196.8 158.4 205.6C155.333 214.4 151.467 222 146.8 228.4C142.133 234.8 136 239.733 128.4 243.2C120.933 246.533 111.6 248.2 100.4 248.2Z" stroke="#061C3E" stroke-width="20" mask="url(#path-2-outside-1_411_2)"/>
<path d="M252.736 248C242.603 248 234.269 246 227.736 242C221.336 238 216.603 232.667 213.536 226C210.469 219.2 208.936 211.733 208.936 203.6C208.936 195.067 210.469 186.933 213.536 179.2C216.736 171.467 221.203 164.6 226.936 158.6C232.669 152.6 239.403 147.933 247.136 144.6C255.003 141.133 263.603 139.4 272.936 139.4C283.069 139.4 291.336 141.4 297.736 145.4C304.269 149.4 309.069 154.733 312.136 161.4C315.203 168.067 316.736 175.533 316.736 183.8C316.736 192.333 315.136 200.467 311.936 208.2C308.869 215.933 304.469 222.8 298.736 228.8C293.003 234.8 286.203 239.533 278.336 243C270.603 246.333 262.069 248 252.736 248ZM256.736 225.2C260.869 225.2 264.869 224.267 268.736 222.4C272.603 220.533 276.003 217.867 278.936 214.4C282.003 210.933 284.403 206.867 286.136 202.2C288.003 197.533 288.936 192.467 288.936 187C288.936 182.067 288.136 177.733 286.536 174C285.069 170.267 282.803 167.4 279.736 165.4C276.803 163.267 273.203 162.2 268.936 162.2C264.803 162.2 260.803 163.133 256.936 165C253.203 166.867 249.803 169.533 246.736 173C243.669 176.467 241.203 180.6 239.336 185.4C237.603 190.067 236.736 195.133 236.736 200.6C236.736 205.4 237.469 209.667 238.936 213.4C240.536 217.133 242.803 220.067 245.736 222.2C248.803 224.2 252.469 225.2 256.736 225.2Z" stroke="#061C3E" stroke-width="20" mask="url(#path-2-outside-1_411_2)"/>
<path d="M409.523 248C401.79 248 395.39 246.2 390.323 242.6C385.257 238.867 381.657 233.933 379.523 227.8L375.723 246H352.323L383.323 100H410.123L397.323 159.6C401.99 153.467 407.59 148.6 414.123 145C420.79 141.267 427.723 139.4 434.923 139.4C442.39 139.4 448.657 141.333 453.723 145.2C458.79 148.933 462.59 154 465.123 160.4C467.79 166.8 469.123 173.933 469.123 181.8C469.123 190.867 467.457 199.4 464.123 207.4C460.79 215.267 456.323 222.267 450.723 228.4C445.123 234.533 438.723 239.333 431.523 242.8C424.457 246.267 417.123 248 409.523 248ZM407.523 225.2C411.79 225.2 415.923 224.2 419.923 222.2C423.923 220.067 427.457 217.267 430.523 213.8C433.723 210.2 436.257 206.133 438.123 201.6C439.99 196.933 440.923 192.067 440.923 187C440.923 182.467 440.123 178.333 438.523 174.6C437.057 170.867 434.923 167.867 432.123 165.6C429.323 163.333 425.857 162.2 421.723 162.2C418.123 162.2 414.523 163.133 410.923 165C407.323 166.733 403.923 169.133 400.723 172.2C397.657 175.267 394.923 178.733 392.523 182.6L387.123 207.6C387.657 211.067 388.857 214.133 390.723 216.8C392.59 219.467 394.923 221.533 397.723 223C400.657 224.467 403.923 225.2 407.523 225.2Z" stroke="#061C3E" stroke-width="20" mask="url(#path-2-outside-1_411_2)"/>
<path d="M545.784 248C538.051 248 531.384 246.133 525.784 242.4C520.318 238.533 516.051 233.4 512.984 227C510.051 220.467 508.584 213.133 508.584 205C508.584 196.333 510.118 188.067 513.184 180.2C516.251 172.333 520.451 165.333 525.784 159.2C531.251 153.067 537.384 148.267 544.184 144.8C551.118 141.2 558.384 139.4 565.984 139.4C573.184 139.4 579.318 141.333 584.384 145.2C589.451 148.933 592.918 153.733 594.784 159.6L598.784 141.6H625.584L609.984 215.2C609.851 215.867 609.718 216.533 609.584 217.2C609.451 217.733 609.384 218.267 609.384 218.8C609.384 221.6 610.984 223.067 614.184 223.2L609.384 246C606.984 246.4 604.851 246.733 602.984 247C601.251 247.267 599.718 247.4 598.384 247.4C593.584 247.4 589.851 246.4 587.184 244.4C584.518 242.4 583.184 239.4 583.184 235.4C583.184 234.867 583.251 234.267 583.384 233.6C583.518 232.8 583.651 231.933 583.784 231C583.918 229.933 584.118 228.867 584.384 227.8C579.318 234.333 573.318 239.333 566.384 242.8C559.451 246.267 552.584 248 545.784 248ZM557.784 225.2C560.051 225.2 562.451 224.8 564.984 224C567.518 223.067 569.984 221.867 572.384 220.4C574.918 218.8 577.251 216.933 579.384 214.8C581.518 212.533 583.318 210.133 584.784 207.6L589.984 182.6C589.584 178.733 588.384 175.267 586.384 172.2C584.384 169.133 581.918 166.733 578.984 165C576.051 163.133 572.918 162.2 569.584 162.2C565.318 162.2 561.184 163.333 557.184 165.6C553.318 167.733 549.851 170.667 546.784 174.4C543.718 178 541.251 182.133 539.384 186.8C537.651 191.333 536.784 196 536.784 200.8C536.784 205.333 537.651 209.467 539.384 213.2C541.118 216.933 543.518 219.867 546.584 222C549.784 224.133 553.518 225.2 557.784 225.2Z" stroke="#061C3E" stroke-width="20" mask="url(#path-2-outside-1_411_2)"/>
<path d="M651.198 271.2C656.532 270.8 660.865 270.133 664.198 269.2C667.665 268.267 670.665 266.733 673.198 264.6C675.732 262.6 678.332 259.733 680.998 256L686.798 248.2L669.398 141.2H696.798L705.798 222.8L712.598 211.6C716.732 204.8 720.332 198.467 723.398 192.6C726.598 186.6 729.332 180.867 731.598 175.4C733.998 169.8 736.065 164.2 737.798 158.6C739.532 153 741.132 147.2 742.598 141.2H768.599C766.865 147.6 764.932 153.667 762.798 159.4C760.665 165 758.132 170.867 755.198 177C752.265 183.133 748.532 190.067 743.998 197.8C739.598 205.533 734.065 214.733 727.398 225.4L711.398 251.2C706.732 258.667 702.198 264.933 697.798 270C693.532 275.2 689.132 279.4 684.598 282.6C680.198 285.8 675.532 288.067 670.598 289.4C665.665 290.867 660.265 291.667 654.398 291.8L651.198 271.2Z" stroke="#061C3E" stroke-width="20" mask="url(#path-2-outside-1_411_2)"/>
<path d="M838.342 248C829.542 248 821.875 246.133 815.342 242.4C808.942 238.533 804.009 233.267 800.542 226.6C797.209 219.8 795.542 212.133 795.542 203.6C795.542 194.933 797.209 186.733 800.542 179C803.876 171.267 808.542 164.467 814.542 158.6C820.542 152.6 827.542 147.933 835.542 144.6C843.542 141.133 852.209 139.4 861.542 139.4C869.142 139.4 875.742 140.533 881.342 142.8C886.942 145.067 891.275 148.4 894.342 152.8C897.409 157.067 898.942 162.333 898.942 168.6C898.942 179.667 893.876 188.067 883.742 193.8C873.742 199.533 858.676 202.4 838.542 202.4C834.542 202.4 830.209 202.333 825.542 202.2C820.876 201.933 815.809 201.533 810.342 201L813.742 184.2C818.542 184.6 822.942 184.933 826.942 185.2C830.942 185.333 834.876 185.4 838.742 185.4C847.409 185.4 854.209 184.8 859.142 183.6C864.209 182.4 867.876 180.667 870.142 178.4C872.409 176.133 873.542 173.467 873.542 170.4C873.542 167.733 872.876 165.6 871.542 164C870.209 162.267 868.342 161 865.942 160.2C863.675 159.267 860.942 158.8 857.742 158.8C852.542 158.8 847.742 160.067 843.342 162.6C839.075 165 835.342 168.333 832.142 172.6C828.942 176.867 826.476 181.733 824.742 187.2C823.009 192.667 822.142 198.467 822.142 204.6C822.142 209.133 822.875 213.267 824.342 217C825.942 220.6 828.275 223.4 831.342 225.4C834.409 227.4 838.342 228.4 843.142 228.4C848.476 228.4 853.476 227.133 858.142 224.6C862.942 222.067 866.742 218.533 869.542 214L890.742 220.6C887.276 225.933 882.742 230.667 877.142 234.8C871.542 238.933 865.409 242.2 858.742 244.6C852.076 246.867 845.275 248 838.342 248Z" stroke="#061C3E" stroke-width="20" mask="url(#path-2-outside-1_411_2)"/>
<path d="M953.898 141.2H978.498L973.698 163.6C978.765 156.4 984.432 150.733 990.698 146.6C997.098 142.333 1003.37 140.2 1009.5 140.2C1010.83 140.2 1011.83 140.267 1012.5 140.4C1013.3 140.4 1013.9 140.467 1014.3 140.6L1009.3 164.4C1001.7 164.4 994.498 166 987.698 169.2C981.032 172.267 975.765 176.733 971.898 182.6L958.498 246H931.698L953.898 141.2Z" stroke="#061C3E" stroke-width="20" mask="url(#path-2-outside-1_411_2)"/>
</svg>
